<?xml version="1.0" encoding="UTF-8"?>
<svg id="a" xmlns="http://www.w3.org/2000/svg" viewBox="0 0 1545 251">
  <rect x="3.5" y="3.5" width="1538" height="244" rx="18.5" ry="18.5" style="fill: #fff; stroke: #323739; stroke-width: 7px;"/>
  <g>
    <path d="M293.91,140.76h-9.3c-5.05,0-9.65-1.32-13.78-3.97-4.13-2.6-7.41-6.12-9.82-10.54-2.42-4.38-3.63-9.21-3.63-14.51v-47.23c0-5.3,1.21-10.15,3.63-14.57,2.42-4.38,5.7-7.89,9.82-10.54,4.13-2.6,8.72-3.91,13.78-3.91h9.56c5.1,0,9.69,1.3,13.78,3.91,4.08,2.56,7.36,6.07,9.82,10.54,2.42,4.42,3.63,8.98,3.63,13.71v8.87h-20.84v-8.87c0-1.99-.64-3.77-1.92-5.36-1.32-1.54-2.81-2.32-4.49-2.32h-9.56c-1.71,0-3.24.82-4.55,2.45-1.32,1.59-1.98,3.62-1.98,6.09v47.23c0,2.43.66,4.46,1.98,6.09,1.32,1.63,2.83,2.45,4.55,2.45h9.3c3.78,0,5.85-1.89,6.2-5.7.17-1.59.26-4.86.26-9.8h20.77c0,7.42-.09,12.01-.26,13.77-1.32,7.72-5.54,13.84-12.66,18.35-4.13,2.56-8.9,3.84-14.31,3.84h.01Z" style="fill: #323739; stroke: #323739;"/>
    <path d="M396.73,140.82h-20.05l-15.24-72-15.3,72h-20.12l22.16-104.06h26.45l22.09,104.06h.02Z" style="fill: #323739; stroke: #323739;"/>
    <path d="M457.14,140.76h-50.45V36.69h19.72l.07,84.92h30.73l-.07,19.15h.01Z" style="fill: #323739; stroke: #323739;"/>
    <path d="M501.59,140.76h-9.3c-5.05,0-9.65-1.32-13.78-3.97-4.13-2.6-7.41-6.12-9.82-10.54-2.42-4.38-3.63-9.21-3.63-14.51v-47.23c0-5.3,1.21-10.15,3.63-14.57,2.42-4.38,5.7-7.89,9.82-10.54,4.13-2.6,8.72-3.91,13.78-3.91h9.56c5.1,0,9.69,1.3,13.78,3.91,4.08,2.56,7.36,6.07,9.82,10.54,2.42,4.42,3.63,8.98,3.63,13.71v8.87h-20.84v-8.87c0-1.99-.64-3.77-1.92-5.36-1.32-1.54-2.81-2.32-4.49-2.32h-9.56c-1.71,0-3.24.82-4.55,2.45-1.32,1.59-1.98,3.62-1.98,6.09v47.23c0,2.43.66,4.46,1.98,6.09,1.32,1.63,2.83,2.45,4.55,2.45h9.3c3.78,0,5.85-1.89,6.2-5.7.17-1.59.26-4.86.26-9.8h20.77c0,7.42-.09,12.01-.26,13.77-1.32,7.72-5.54,13.84-12.66,18.35-4.13,2.56-8.9,3.84-14.31,3.84h.01Z" style="fill: #323739; stroke: #323739;"/>
    <path d="M558.64,140.76h-19.65V36.69h19.65v104.06Z" style="fill: #323739; stroke: #323739;"/>
    <path d="M605.72,141.49h-10.09c-4.79,0-9.13-1.35-12.99-4.04-3.87-2.65-6.95-6.16-9.24-10.54s-3.43-9.23-3.43-14.57V36.63h19.65v75.51c0,2.65.63,4.88,1.92,6.7,1.27,1.82,2.64,2.71,4.08,2.71h10.09c1.41-.04,2.74-.95,4.02-2.71,1.27-1.72,1.94-3.95,1.98-6.7V36.63h19.58v75.51c0,5.48-1.1,10.43-3.3,14.83-2.24,4.38-5.29,7.87-9.17,10.47-3.87,2.65-8.25,3.99-13.13,4.04h.02Z" style="fill: #323739; stroke: #323739;"/>
    <path d="M723.05,140.76h-19.65v-45.24l-11.87,34.11h-18.87l-11.94-34.31v45.45h-19.65V36.69h20.25l20.77,60.02,20.84-60.02h20.12v104.06Z" style="fill: #323739; stroke: #323739;"/>
    <path d="M775.94,140.76h-19.72V55.77h-22.43v-19.08h64.64v19.08h-22.49v84.98Z" style="fill: #323739; stroke: #323739;"/>
    <path d="M864.58,140.82h-20.05l-15.24-72-15.3,72h-20.12l22.16-104.06h26.45l22.09,104.06h.02Z" style="fill: #323739; stroke: #323739;"/>
    <path d="M916.14,140.76h-41.62V36.76h36.34c4.36,0,8.27,1.19,11.74,3.58,3.47,2.43,6.22,5.63,8.25,9.61s3.04,8.35,3.04,13.12v7.95c0,5.87-1.38,10.64-4.15,14.31,3.52,1.95,5.98,4.75,7.39,8.41,1.36,3.71,2.05,7.35,2.05,10.93v8.61c0,5.03-1.01,9.61-3.04,13.71-2.03,4.15-4.77,7.48-8.25,10s-7.39,3.77-11.74,3.77ZM910.87,77.11c.8,0,1.58-.57,2.37-1.72s1.19-2.6,1.19-4.38v-7.95c0-1.81-.39-3.29-1.19-4.44-.8-1.1-1.58-1.65-2.37-1.65h-16.82v20.14h16.82ZM915.36,120.55c.52,0,1.23-.67,2.11-1.99.88-1.37,1.32-3.14,1.32-5.3v-8.61c0-2.34-.44-4.15-1.32-5.43s-1.58-1.93-2.11-1.93h-21.31v23.25h21.31Z" style="fill: #323739; stroke: #323739;"/>
    <path d="M998.85,140.76h-50.45V36.69h19.72l.07,84.92h30.73l-.07,19.15h.01Z" style="fill: #323739; stroke: #323739;"/>
    <path d="M1008.68,56.03v-19.08h49.92v19.01l-49.92.07ZM1008.68,98.3v-19.08h49.92v19.01s-49.92.07-49.92.07ZM1008.68,140.82v-19.08h49.92v19.01s-49.92.07-49.92.07Z" style="fill: #323739; stroke: #323739;"/>
    <path d="M1110.64,140.76h-19.72V55.77h-22.43v-19.08h64.64v19.08h-22.49v84.98Z" style="fill: #323739; stroke: #323739;"/>
    <path d="M1161.02,140.82l-17.94-.07V36.69h32.91c5.76,0,10.99,1.59,15.7,4.77,4.71,3.18,8.42,7.37,11.14,12.58,2.72,5.16,4.08,10.97,4.08,17.42v34.18c0,6.4-1.36,12.25-4.08,17.55-2.72,5.21-6.44,9.45-11.14,12.71-4.71,3.23-9.93,4.84-15.7,4.84l-14.97.07v.02ZM1175.99,120.55c2.98,0,5.63-1.43,7.92-4.31,2.24-2.82,3.37-6.36,3.37-10.6v-33.52c0-4.19-1.14-7.7-3.43-10.54-2.24-2.87-4.86-4.31-7.85-4.31h-13.32v63.26h13.32v.02Z" style="fill: #323739; stroke: #323739;"/>
    <path d="M1250.25,141.49c-4.13,0-8.31-.58-12.53-1.72-2.64-.8-4.88-1.86-6.73-3.18-9.37-6.76-14.05-16.91-14.05-30.47v-33.85c0-13.6,4.68-23.76,14.05-30.47,1.85-1.32,4.08-2.38,6.73-3.18,4.23-1.15,8.4-1.72,12.53-1.72s8.2.56,12.33,1.65c2.72.89,4.9,1.99,6.52,3.31,4.27,3.23,7.67,7.51,10.22,12.85,2.07,4.73,3.1,10.58,3.1,17.55v33.85c0,6.94-1.03,12.81-3.1,17.62-2.55,5.3-5.96,9.58-10.22,12.85-4.31,3.27-10.6,4.9-18.87,4.9h.01ZM1249.85,121.09c2.51,0,5.01-.5,7.52-1.52,3.74-1.89,5.61-6.38,5.61-13.45v-33.85c0-7.24-1.87-11.68-5.61-13.31-2.46-1.1-4.99-1.65-7.58-1.65-2.37,0-4.75.48-7.12,1.46-1.45.67-2.59,1.54-3.43,2.65-1.94,2.87-2.9,6.49-2.9,10.86v33.85c0,4.42.97,8.04,2.9,10.86.93,1.24,2.05,2.12,3.37,2.65,2.46.97,4.88,1.46,7.25,1.46Z" style="fill: #323739; stroke: #323739;"/>
    <path d="M1333.28,140.76h-19.72V55.77h-22.43v-19.08h64.64v19.08h-22.49v84.98Z" style="fill: #323739; stroke: #323739;"/>
    <path d="M1400.29,140.76h-9.3c-5.05,0-9.65-1.32-13.78-3.97-4.13-2.6-7.41-6.12-9.82-10.54-2.42-4.38-3.63-9.21-3.63-14.51v-47.23c0-5.3,1.21-10.15,3.63-14.57,2.42-4.38,5.7-7.89,9.82-10.54,4.13-2.6,8.72-3.91,13.78-3.91h9.56c5.1,0,9.69,1.3,13.78,3.91,4.08,2.56,7.36,6.07,9.82,10.54,2.42,4.42,3.63,8.98,3.63,13.71v8.87h-20.84v-8.87c0-1.99-.64-3.77-1.92-5.36-1.32-1.54-2.81-2.32-4.49-2.32h-9.56c-1.71,0-3.24.82-4.55,2.45-1.32,1.59-1.98,3.62-1.98,6.09v47.23c0,2.43.66,4.46,1.98,6.09s2.83,2.45,4.55,2.45h9.3c3.78,0,5.85-1.89,6.2-5.7.17-1.59.26-4.86.26-9.8h20.77c0,7.42-.09,12.01-.26,13.77-1.32,7.72-5.54,13.84-12.66,18.35-4.13,2.56-8.9,3.84-14.31,3.84h.01Z" style="fill: #323739; stroke: #323739;"/>
    <path d="M1474.22,140.76h-9.3c-5.05,0-9.65-1.32-13.78-3.97-4.13-2.6-7.41-6.12-9.82-10.54-2.42-4.38-3.63-9.21-3.63-14.51v-47.23c0-5.3,1.21-10.15,3.63-14.57,2.42-4.38,5.7-7.89,9.82-10.54,4.13-2.6,8.72-3.91,13.78-3.91h9.56c5.1,0,9.69,1.3,13.78,3.91,4.08,2.56,7.36,6.07,9.82,10.54,2.42,4.42,3.63,8.98,3.63,13.71v8.87h-20.84v-8.87c0-1.99-.64-3.77-1.92-5.36-1.32-1.54-2.81-2.32-4.49-2.32h-9.56c-1.71,0-3.24.82-4.55,2.45-1.32,1.59-1.98,3.62-1.98,6.09v47.23c0,2.43.66,4.46,1.98,6.09s2.83,2.45,4.55,2.45h9.3c3.78,0,5.85-1.89,6.2-5.7.17-1.59.26-4.86.26-9.8h20.77c0,7.42-.09,12.01-.26,13.77-1.32,7.72-5.54,13.84-12.66,18.35-4.13,2.56-8.9,3.84-14.31,3.84h.01Z" style="fill: #323739; stroke: #323739;"/>
  </g>
  <g>
    <path d="M274.11,177.16c3.45,0,6.74,1.34,9.75,3.02.34.19.34.58.14.86l-2.66,3.69c-.25.34-.55.38-.89.15-1.48-1.06-3.7-2.01-6.31-2.01-15.51,0-15.51,23.6,0,23.6,1.92,0,5.76-.29,5.76-2.88v-3.69c0-.81-.55-1.39-1.38-1.39h-6.05c-.39,0-.63-.23-.63-.62v-4.13c0-.38.24-.62.63-.62h12.75c.39,0,.63.25.63.62v13.77c0,.38-.2.77-.49,1-2.86,2.07-7,3.65-11.28,3.65-11.87,0-17.78-8.77-17.78-17.51s5.91-17.51,17.78-17.51v-.02Z" style="fill: #333; stroke: #323739;"/>
    <path d="M291.15,210.88l15.57-33.05c.1-.23.44-.43.73-.43s.59.19.69.43l15.57,33.05c.14.34,0,.58-.39.58h-4.83c-.39,0-.79-.23-.93-.58l-1.38-2.93c-.34-.71-1.14-1.19-1.97-1.19h-9.95c-.39,0-.55-.23-.39-.58l2.01-4.22c.15-.34.49-.58.89-.58h4.93c.83,0,1.13-.48.79-1.25l-4.43-9.4c-.2-.38-.39-.58-.59-.58s-.39.19-.59.58l-9.56,20.15c-.15.34-.55.58-.89.58h-4.87c-.39,0-.55-.23-.39-.58h0Z" style="fill: #333; stroke: #323739;"/>
    <path d="M329.1,210.84l4.97-32.33c.05-.38.34-.62.74-.62h.69c.39,0,.79.25.93.53l12.12,22.4c.2.38.45.53.63.53.25,0,.45-.15.63-.53l12.12-22.4c.14-.29.55-.53.93-.53h.69c.34,0,.69.25.73.62l.69,4.7c.04.38,0,.86-.2,1.19l-14.33,26.48c-.2.34-.54.58-.93.58h-.69c-.39,0-.73-.23-.93-.58l-9.46-17.41c-.39-.71-.73-.62-.83.14l-2.72,17.22c-.04.38-.34.62-.73.62h-4.53c-.39,0-.59-.23-.54-.62h0ZM362.19,199.46l3.84-7.14c.2-.34.34-.29.39.1l2.86,18.42c.04.38-.14.62-.55.62h-4.53c-.39,0-.69-.23-.73-.62l-1.53-10.17c-.04-.38.04-.86.25-1.19h0Z" style="fill: #333; stroke: #323739;"/>
    <path d="M375.59,182.63v-4.13c0-.38.25-.62.63-.62h21.03c.39,0,.63.25.63.62v4.13c0,.38-.25.62-.63.62h-21.03c-.39,0-.63-.23-.63-.62ZM375.59,192.61c0-.38.25-.62.63-.62h21.03c.39,0,.63.25.63.62v4.13c0,.38-.25.62-.63.62h-21.03c-.39,0-.63-.23-.63-.62v-4.13ZM376.24,206.08h21.03c.39,0,.63.25.63.62v4.13c0,.38-.25.62-.63.62h-21.03c-.39,0-.63-.23-.63-.62v-4.13c0-.38.25-.62.63-.62Z" style="fill: #333; stroke: #323739;"/>
    <path d="M404.12,206.62l3.6-2.73c.3-.19.63-.19.89.1,2.17,2.44,5.46,3.21,8.67,3.21,2.61,0,6.5-.96,6.5-4.13,0-6.47-19.16-5.76-19.16-17.03,0-.34.3-.62.69-.62h4.48c.39,0,.63.23.69.62.89,6.91,19.11,5.8,19.11,17.22,0,6.52-6.6,9.59-12.51,9.59-4.87,0-9.9-1.63-13.05-5.37-.25-.29-.2-.63.1-.86h-.01ZM410.33,177.69c1.83-.77,3.94-1.19,6.11-1.19,4.24,0,8.37,1.87,11.63,4.51.3.25.3.62.04.86l-3,3.3c-.3.29-.63.29-.89.04-2.21-1.92-4.97-3.07-7.98-3.07-.99,0-2.12.1-3.1.44-.39.14-.69.04-.89-.29l-2.17-3.78c-.2-.29-.1-.67.25-.81h-.01Z" style="fill: #333; stroke: #323739;"/>
    <path d="M459.44,206.62l3.6-2.73c.3-.19.63-.19.89.1,2.17,2.44,5.46,3.21,8.67,3.21,2.61,0,6.5-.96,6.5-4.13,0-6.47-19.16-5.76-19.16-17.03,0-.34.3-.62.69-.62h4.48c.39,0,.63.23.69.62.89,6.91,19.11,5.8,19.11,17.22,0,6.52-6.6,9.59-12.51,9.59-4.87,0-9.9-1.63-13.05-5.37-.25-.29-.2-.63.1-.86h-.01ZM465.65,177.69c1.83-.77,3.94-1.19,6.11-1.19,4.24,0,8.37,1.87,11.63,4.51.3.25.3.62.04.86l-3,3.3c-.3.29-.63.29-.89.04-2.21-1.92-4.97-3.07-7.98-3.07-.99,0-2.12.1-3.1.44-.39.14-.69.04-.89-.29l-2.17-3.78c-.2-.29-.1-.67.25-.81h-.01Z" style="fill: #333; stroke: #323739;"/>
    <path d="M489.69,210.88l15.57-33.05c.1-.23.44-.43.73-.43s.59.19.69.43l15.57,33.05c.14.34,0,.58-.39.58h-4.83c-.39,0-.79-.23-.94-.58l-1.38-2.93c-.35-.71-1.14-1.19-1.97-1.19h-9.95c-.39,0-.55-.23-.39-.58l2.01-4.22c.15-.34.49-.58.89-.58h4.93c.83,0,1.13-.48.79-1.25l-4.43-9.4c-.2-.38-.39-.58-.59-.58s-.39.19-.59.58l-9.56,20.15c-.15.34-.55.58-.89.58h-4.87c-.39,0-.55-.23-.39-.58h.01Z" style="fill: #333; stroke: #323739;"/>
    <path d="M526.69,177.89h4.88c.34,0,.73.25.89.58l12.95,27.39c.14.33.14.77,0,1.11l-2.12,4.55c-.14.29-.39.44-.69.44s-.59-.14-.73-.44l-15.57-33.05c-.14-.33,0-.58.39-.58h0ZM544.67,195.34l8.02-16.89c.14-.33.55-.58.94-.58h4.83c.39,0,.55.25.39.58l-11.08,23.45c-.14.34-.39.34-.55,0l-2.56-5.42c-.14-.34-.14-.82,0-1.15h0Z" style="fill: #333; stroke: #323739;"/>
    <path d="M563.84,182.63v-4.13c0-.38.24-.62.63-.62h21.03c.39,0,.63.25.63.62v4.13c0,.38-.24.62-.63.62h-21.03c-.39,0-.63-.23-.63-.62ZM563.84,192.61c0-.38.24-.62.63-.62h21.03c.39,0,.63.25.63.62v4.13c0,.38-.24.62-.63.62h-21.03c-.39,0-.63-.23-.63-.62v-4.13ZM564.47,206.08h21.03c.39,0,.63.25.63.62v4.13c0,.38-.24.62-.63.62h-21.03c-.39,0-.63-.23-.63-.62v-4.13c0-.38.24-.62.63-.62Z" style="fill: #333; stroke: #323739;"/>
    <path d="M616.69,178.5c0-.38.24-.62.63-.62h4.63c.39,0,.63.25.63.62v21.59c0,.38-.24.62-.63.62h-4.63c-.39,0-.63-.23-.63-.62v-21.59ZM616.69,206.71c0-.38.24-.62.63-.62h21.03c.39,0,.63.25.63.62v4.13c0,.38-.24.62-.63.62h-21.03c-.39,0-.63-.23-.63-.62v-4.13Z" style="fill: #333; stroke: #323739;"/>
    <path d="M644.53,178.5c0-.38.24-.62.63-.62h4.63c.39,0,.63.25.63.62v4.13c0,.38-.24.62-.63.62h-4.63c-.39,0-.63-.23-.63-.62v-4.13ZM645.17,187.91h4.63c.39,0,.63.23.63.62v22.3c0,.38-.24.62-.63.62h-4.63c-.39,0-.63-.23-.63-.62v-22.3c0-.38.24-.62.63-.62Z" style="fill: #333; stroke: #323739;"/>
    <path d="M656.6,177.89h4.88c.34,0,.73.25.89.58l12.95,27.39c.14.33.14.77,0,1.11l-2.12,4.55c-.14.29-.39.44-.69.44s-.59-.14-.73-.44l-15.57-33.05c-.14-.33,0-.58.39-.58h0ZM674.58,195.34l8.02-16.89c.14-.33.55-.58.94-.58h4.83c.39,0,.55.25.39.58l-11.08,23.45c-.14.34-.39.34-.55,0l-2.56-5.42c-.14-.34-.14-.82,0-1.15h0Z" style="fill: #333; stroke: #323739;"/>
    <path d="M693.74,182.63v-4.13c0-.38.24-.62.63-.62h21.03c.39,0,.63.25.63.62v4.13c0,.38-.24.62-.63.62h-21.03c-.39,0-.63-.23-.63-.62ZM693.74,192.61c0-.38.24-.62.63-.62h21.03c.39,0,.63.25.63.62v4.13c0,.38-.24.62-.63.62h-21.03c-.39,0-.63-.23-.63-.62v-4.13ZM694.39,206.08h21.03c.39,0,.63.25.63.62v4.13c0,.38-.24.62-.63.62h-21.03c-.39,0-.63-.23-.63-.62v-4.13c0-.38.24-.62.63-.62Z" style="fill: #333; stroke: #323739;"/>
    <path d="M722.27,206.62l3.6-2.73c.3-.19.63-.19.89.1,2.17,2.44,5.47,3.21,8.67,3.21,2.61,0,6.5-.96,6.5-4.13,0-6.47-19.16-5.76-19.16-17.03,0-.34.3-.62.69-.62h4.48c.39,0,.63.23.69.62.89,6.91,19.11,5.8,19.11,17.22,0,6.52-6.6,9.59-12.51,9.59-4.88,0-9.9-1.63-13.05-5.37-.24-.29-.2-.63.1-.86h-.01ZM728.48,177.69c1.83-.77,3.94-1.19,6.11-1.19,4.24,0,8.37,1.87,11.63,4.51.3.25.3.62.04.86l-3.01,3.3c-.3.29-.63.29-.89.04-2.21-1.92-4.97-3.07-7.98-3.07-.99,0-2.11.1-3.1.44-.39.14-.69.04-.89-.29l-2.17-3.78c-.2-.29-.1-.67.24-.81h.01Z" style="fill: #333; stroke: #323739;"/>
    <path d="M763.46,214.96l3.2-8.4c.14-.34.49-.58.89-.58h4.58c.35,0,.49.23.3.53l-5.17,8.49c-.2.33-.59.53-.99.53h-2.42c-.39,0-.55-.25-.39-.58h.01Z" style="fill: #333; stroke: #323739;"/>
    <path d="M830.15,177.16c3.45,0,6.75,1.34,9.75,3.02.35.19.35.58.15.86l-2.66,3.69c-.24.34-.54.38-.89.15-1.48-1.06-3.7-2.01-6.31-2.01-15.51,0-15.51,23.6,0,23.6,3.2,0,5.17-.96,6.35-1.92.3-.25.63-.19.83.1l2.71,3.65c.2.29.14.67-.15.86-2.66,2.01-5.52,3.02-9.8,3.02-11.87,0-17.78-8.77-17.78-17.51s5.91-17.51,17.78-17.51h0Z" style="fill: #333; stroke: #323739;"/>
    <path d="M861.34,177.12c8.87,0,17.74,5.85,17.74,17.56s-8.87,17.56-17.74,17.56-17.78-5.85-17.78-17.56,8.87-17.56,17.78-17.56ZM861.34,206.42c5.96,0,11.97-3.89,11.97-11.75s-6.01-11.75-11.97-11.75-11.97,3.88-11.97,11.75,5.96,11.75,11.97,11.75ZM857.3,194.24l3.6-3.51c.25-.23.59-.29.89,0l3.59,3.51c.25.23.25.62,0,.86l-3.59,3.51c-.3.29-.63.23-.89,0l-3.6-3.51c-.3-.29-.3-.58,0-.86Z" style="fill: #333; stroke: #323739;"/>
    <path d="M885.77,182.63v-4.13c0-.38.24-.62.63-.62h8.18c1.32,0,2.27,0,2.8.04,10.78.72,16.2,8.73,16.2,16.75s-5.42,15.78-16.2,16.74c-.54.04-1.48.04-2.8.04h-8.18c-.39,0-.63-.23-.63-.62v-22.3c0-.38.24-.62.63-.62h4.63c.39,0,.63.23.63.62v16.16c0,.81.55,1.34,1.38,1.34h1.28c1.42,0,2.27,0,2.8-.04,14.13-1.34,13.74-22.74-1.42-22.74h-9.31c-.39,0-.63-.23-.63-.62h0Z" style="fill: #333; stroke: #323739;"/>
    <path d="M919.52,182.63v-4.13c0-.38.24-.62.63-.62h21.03c.39,0,.63.25.63.62v4.13c0,.38-.24.62-.63.62h-21.03c-.39,0-.63-.23-.63-.62ZM919.52,192.61c0-.38.24-.62.63-.62h21.03c.39,0,.63.25.63.62v4.13c0,.38-.24.62-.63.62h-21.03c-.39,0-.63-.23-.63-.62v-4.13ZM920.16,206.08h21.03c.39,0,.63.25.63.62v4.13c0,.38-.24.62-.63.62h-21.03c-.39,0-.63-.23-.63-.62v-4.13c0-.38.24-.62.63-.62Z" style="fill: #333; stroke: #323739;"/>
    <path d="M989.37,177.16c3.45,0,6.75,1.34,9.75,3.02.35.19.35.58.15.86l-2.66,3.69c-.24.34-.54.38-.89.15-1.48-1.06-3.7-2.01-6.31-2.01-15.51,0-15.51,23.6,0,23.6,3.2,0,5.17-.96,6.35-1.92.3-.25.63-.19.83.1l2.71,3.65c.2.29.14.67-.15.86-2.66,2.01-5.52,3.02-9.8,3.02-11.87,0-17.78-8.77-17.78-17.51s5.91-17.51,17.78-17.51h0ZM985.33,194.28l3.6-3.45c.3-.29.59-.23.89,0l3.59,3.45c.3.29.3.62,0,.92l-3.59,3.45c-.3.25-.59.29-.89,0l-3.6-3.45c-.3-.25-.3-.67,0-.92Z" style="fill: #333; stroke: #323739;"/>
    <path d="M1007.3,177.89h4.63c.39,0,.63.25.63.62v12.13c0,.81.55,1.34,1.38,1.34h13.7c.84,0,1.38-.53,1.38-1.34v-12.13c0-.38.3-.62.63-.62h4.63c.39,0,.63.25.63.62v32.33c0,.38-.25.62-.63.62h-4.63c-.34,0-.63-.23-.63-.62v-12.13c0-.81-.54-1.34-1.38-1.34h-20.34c-.39,0-.63-.23-.63-.62v-18.23c0-.38.24-.62.63-.62h0ZM1007.3,202.44h4.63c.39,0,.63.25.63.62v7.77c0,.38-.24.62-.63.62h-4.63c-.39,0-.63-.23-.63-.62v-7.77c0-.38.24-.62.63-.62Z" style="fill: #333; stroke: #323739;"/>
    <path d="M1040.7,210.88l15.57-33.05c.1-.23.45-.43.73-.43s.59.19.69.43l15.57,33.05c.14.34,0,.58-.39.58h-4.83c-.39,0-.79-.23-.94-.58l-1.38-2.93c-.35-.71-1.14-1.19-1.97-1.19h-9.95c-.39,0-.55-.23-.39-.58l2.03-4.22c.14-.34.49-.58.89-.58h4.93c.83,0,1.14-.48.79-1.25l-4.43-9.4c-.2-.38-.39-.58-.59-.58s-.39.19-.59.58l-9.56,20.15c-.14.34-.55.58-.89.58h-4.88c-.39,0-.55-.23-.39-.58h.01Z" style="fill: #333; stroke: #323739;"/>
    <path d="M1079.03,178.5c0-.38.24-.62.63-.62h.73c.35,0,.79.19,1.04.44l18.86,19.71c.24.25.39.34.59.34s.34-.25.34-.71v-19.15c0-.38.25-.62.63-.62h4.63c.39,0,.63.25.63.62v32.33c0,.38-.25.62-.63.62h-.69c-.39,0-.83-.19-1.08-.48l-25.27-26.48c-.25-.29-.45-.71-.45-1.11v-4.89h.02ZM1079.03,191.79c0-.38.2-.44.45-.14l5.02,5.28c.24.25.44.67.44,1.06v12.86c0,.38-.24.62-.63.62h-4.63c-.39,0-.63-.23-.63-.62v-19.04h-.01Z" style="fill: #333; stroke: #323739;"/>
    <path d="M1113.87,194.68c0-8.78,5.91-17.51,17.78-17.51,3.45,0,6.75,1.34,9.75,3.02.35.19.35.58.15.86l-2.66,3.69c-.24.34-.54.38-.89.15-1.48-1.06-3.7-2.01-6.31-2.01-15.51,0-15.51,23.6,0,23.6,1.92,0,5.76-.29,5.76-2.88v-.48c0-.38.24-.62.63-.62h4.69c.39,0,.63.25.63.62v4.41c0,.38-.2.77-.49,1-2.86,2.07-7,3.65-11.28,3.65-11.87,0-17.78-8.77-17.78-17.51h0ZM1129.38,197.89v-4.13c0-.38.25-.62.63-.62h12.76c.39,0,.63.25.63.62v4.13c0,.38-.25.62-.63.62h-12.76c-.39,0-.63-.23-.63-.62Z" style="fill: #333; stroke: #323739;"/>
    <path d="M1149.63,182.63v-4.13c0-.38.24-.62.63-.62h21.03c.39,0,.63.25.63.62v4.13c0,.38-.24.62-.63.62h-21.03c-.39,0-.63-.23-.63-.62ZM1149.63,192.61c0-.38.24-.62.63-.62h21.03c.39,0,.63.25.63.62v4.13c0,.38-.24.62-.63.62h-21.03c-.39,0-.63-.23-.63-.62v-4.13ZM1150.27,206.08h21.03c.39,0,.63.25.63.62v4.13c0,.38-.24.62-.63.62h-21.03c-.39,0-.63-.23-.63-.62v-4.13c0-.38.24-.62.63-.62Z" style="fill: #333; stroke: #323739;"/>
    <path d="M1200.52,182.63v-4.13c0-.38.24-.62.63-.62h27.1c.39,0,.63.25.63.62v4.13c0,.38-.25.62-.63.62h-27.1c-.39,0-.63-.23-.63-.62ZM1211.71,188.54c0-.38.3-.62.63-.62h4.63c.39,0,.63.23.63.62v22.3c0,.38-.24.62-.63.62h-4.63c-.35,0-.63-.23-.63-.62v-22.3Z" style="fill: #333; stroke: #323739;"/>
    <path d="M1235.06,177.89h4.63c.39,0,.63.25.63.62v12.13c0,.81.55,1.34,1.38,1.34h13.7c.84,0,1.38-.53,1.38-1.34v-12.13c0-.38.3-.62.63-.62h4.63c.39,0,.63.25.63.62v32.33c0,.38-.25.62-.63.62h-4.63c-.34,0-.63-.23-.63-.62v-12.13c0-.81-.54-1.34-1.38-1.34h-20.34c-.39,0-.63-.23-.63-.62v-18.23c0-.38.24-.62.63-.62h0ZM1235.06,202.44h4.63c.39,0,.63.25.63.62v7.77c0,.38-.24.62-.63.62h-4.63c-.39,0-.63-.23-.63-.62v-7.77c0-.38.24-.62.63-.62Z" style="fill: #333; stroke: #323739;"/>
    <path d="M1269.39,182.63v-4.13c0-.38.24-.62.63-.62h21.03c.39,0,.63.25.63.62v4.13c0,.38-.24.62-.63.62h-21.03c-.39,0-.63-.23-.63-.62ZM1269.39,192.61c0-.38.24-.62.63-.62h21.03c.39,0,.63.25.63.62v4.13c0,.38-.24.62-.63.62h-21.03c-.39,0-.63-.23-.63-.62v-4.13ZM1270.03,206.08h21.03c.39,0,.63.25.63.62v4.13c0,.38-.24.62-.63.62h-21.03c-.39,0-.63-.23-.63-.62v-4.13c0-.38.24-.62.63-.62Z" style="fill: #333; stroke: #323739;"/>
    <path d="M1320.92,177.89h4.97c.39,0,.73.25.89.58l8.18,19.14c.14.38.39.58.59.58s.35-.19.55-.58l7.09-15.64c.1-.23.45-.44.73-.44.35,0,.63.19.73.44l10.68,23.41c.15.34.15.81,0,1.15l-2.11,4.99c-.1.23-.39.44-.69.44-.35,0-.63-.19-.73-.44l-7.35-16.45c-.14-.33-.34-.53-.55-.53-.14,0-.39.15-.55.53l-7.33,16.45c-.1.23-.39.44-.69.44-.35,0-.63-.19-.73-.44l-14.09-33.05c-.14-.33,0-.58.39-.58h.01ZM1354.47,193.9l6.66-15.45c.14-.33.49-.58.89-.58h4.93c.39,0,.55.25.39.58l-9.56,22.49c-.14.33-.34.33-.49,0l-2.8-5.91c-.14-.33-.14-.77,0-1.15h-.01Z" style="fill: #333; stroke: #323739;"/>
    <path d="M1390.09,177.12c8.87,0,17.74,5.85,17.74,17.56s-8.87,17.56-17.74,17.56-17.78-5.85-17.78-17.56,8.87-17.56,17.78-17.56ZM1390.09,206.42c5.96,0,11.97-3.89,11.97-11.75s-6.01-11.75-11.97-11.75-11.97,3.88-11.97,11.75,5.96,11.75,11.97,11.75ZM1386.05,194.24l3.6-3.51c.25-.23.59-.29.89,0l3.59,3.51c.25.23.25.62,0,.86l-3.59,3.51c-.3.29-.63.23-.89,0l-3.6-3.51c-.3-.29-.3-.58,0-.86Z" style="fill: #333; stroke: #323739;"/>
    <path d="M1414.52,210.84v-32.72c0-.15.1-.25.24-.25h9.26c1.38,0,2.22,0,2.8.04,11.82,1.06,13.36,14.35,4.78,18.81-.73.38-.93,1.01-.49,1.63l9.06,12.57c.24.34.1.53-.3.53h-5.76c-.39,0-.79-.19-1.04-.53l-8.81-12.38c-.2-.29-.39-.71-.39-1.11v-4.18c0-.38.24-.62.63-.62h.89c7.49,0,7.43-9.35,0-9.35h-3.59c-.84,0-1.38.58-1.38,1.39v26.14c0,.38-.24.62-.63.62h-4.63c-.39,0-.63-.23-.63-.62v.02Z" style="fill: #333; stroke: #323739;"/>
    <path d="M1446.05,178.5c0-.38.24-.62.63-.62h4.63c.39,0,.63.25.63.62v21.59c0,.38-.24.62-.63.62h-4.63c-.39,0-.63-.23-.63-.62v-21.59ZM1446.05,206.71c0-.38.24-.62.63-.62h21.03c.39,0,.63.25.63.62v4.13c0,.38-.24.62-.63.62h-21.03c-.39,0-.63-.23-.63-.62v-4.13Z" style="fill: #333; stroke: #323739;"/>
    <path d="M1473.89,182.63v-4.13c0-.38.24-.62.63-.62h8.18c1.32,0,2.27,0,2.8.04,10.78.72,16.2,8.73,16.2,16.75s-5.42,15.78-16.2,16.74c-.54.04-1.48.04-2.8.04h-8.18c-.39,0-.63-.23-.63-.62v-22.3c0-.38.24-.62.63-.62h4.63c.39,0,.63.23.63.62v16.16c0,.81.55,1.34,1.38,1.34h1.28c1.42,0,2.27,0,2.8-.04,14.13-1.34,13.74-22.74-1.42-22.74h-9.31c-.39,0-.63-.23-.63-.62h0Z" style="fill: #333; stroke: #323739;"/>
  </g>
  <g>
    <rect x="40.21" y="35.5" width="40" height="180" rx="19.2" ry="19.2" pointer-events="all" style="fill: #323739; stroke: #323739;"/>
    <rect x="51.21" y="35.5" width="56" height="30" rx="9.6" ry="9.6" pointer-events="all" style="fill: #323739; stroke: #323739;"/>
    <rect x="115.21" y="35.5" width="40" height="105" rx="12.8" ry="12.8" pointer-events="all" style="fill: #323739; stroke: #323739;"/>
    <rect x="130.21" y="35.5" width="75" height="40" pointer-events="all" style="fill: #323739; stroke: #323739;"/>
    <rect x="130.21" y="110.5" width="75" height="30" pointer-events="all" style="fill: #323739; stroke: #323739;"/>
    <rect x="181.21" y="110.5" width="39" height="51" rx="12.48" ry="12.48" pointer-events="all" style="fill: #323739; stroke: #323739;"/>
    <rect x="61.21" y="175.5" width="69" height="40" pointer-events="all" style="fill: #323739; stroke: #323739;"/>
    <rect x="115.21" y="147.5" width="30" height="43" rx="11.4" ry="11.4" pointer-events="all" style="fill: #323739; stroke: #323739;"/>
    <rect x="71.21" y="66.5" width="43" height="118" rx="6.88" ry="6.88" pointer-events="all" style="fill: #fff; stroke: #fff;"/>
    <rect x="146.21" y="66.5" width="43" height="43" rx="6.88" ry="6.88" pointer-events="all" style="fill: #fff; stroke: #fff;"/>
    <rect x="146.21" y="141.5" width="43" height="43" rx="6.88" ry="6.88" pointer-events="all" style="fill: #fff; stroke: #fff;"/>
    <rect x="190.21" y="136.5" width="30" height="45" rx="14.4" ry="14.4" pointer-events="all" style="fill: #323739; stroke: #323739;"/>
    <rect x="190.21" y="35.5" width="30" height="68" rx="14.4" ry="14.4" pointer-events="all" style="fill: #323739; stroke: #323739;"/>
    <circle cx="204.88" cy="200.5" r="15" pointer-events="all" style="fill: #c20000; stroke: #c20000;"/>
    <rect x="115.21" y="163.5" width="30" height="52" rx="13.8" ry="13.8" pointer-events="all" style="fill: #323739; stroke: #323739;"/>
  </g>
</svg>